<?xml version="1.0" encoding="iso-8859-1"?>
<!-- Uploaded to: SVG Repo, www.svgrepo.com, Generator: SVG Repo Mixer Tools -->
<svg height="800px" width="800px" version="1.1" id="Layer_1" xmlns="http://www.w3.org/2000/svg" xmlns:xlink="http://www.w3.org/1999/xlink" 
	 viewBox="0 0 512 512" xml:space="preserve">
<path style="fill:#4C4B4F;" d="M389.517,380.128h-64.556v72.564c0,19.27,15.622,34.892,34.892,34.892
	c19.27,0,34.892-15.622,34.892-34.892v-72.706C393.014,380.078,391.272,380.128,389.517,380.128z"/>
<path style="fill:#5A595C;" d="M62.775,191.154c-24.72-40.725-24.282-91.679,1.812-132.27c6.681-10.392,3.672-24.232-6.721-30.912
	c-10.394-6.682-24.231-3.672-30.912,6.72C8.547,63.328-0.757,96.452,0.048,130.483c0.805,34.032,11.666,66.679,31.407,94.411
	l10.784,15.149C46.379,222.46,53.399,205.99,62.775,191.154z"/>
<g>
	<path style="fill:#4C4B4F;" d="M352.619,160.683L352.619,160.683c-74.458,0-134.819,60.361-134.819,134.817l0,0
		c0,54.08,43.84,97.921,97.921,97.921h73.795c54.08,0,97.921-43.841,97.921-97.921l0,0
		C487.436,221.043,427.077,160.683,352.619,160.683z"/>
	<path style="fill:#4C4B4F;" d="M310.116,167.655c-29.432-31.777-71.507-51.678-118.236-51.678l0,0
		c-88.99,0-161.132,72.141-161.132,161.132v116.313v59.269c0,19.27,15.622,34.892,34.892,34.892s34.892-15.622,34.892-34.892
		v-59.269h97.675v59.269c0,19.27,15.622,34.892,34.892,34.892c19.271,0,34.892-15.622,34.892-34.892v-59.269h48.121L310.116,167.655
		z"/>
</g>
<path style="fill:#5A595C;" d="M509.654,172.067c0,0-55.783-23.236-94.999,3.714l0,0c-18.571-9.643-39.667-15.098-62.038-15.098
	c-22.371,0-43.465,5.455-62.038,15.098l0,0c-39.215-26.951-94.999-3.714-94.999-3.714s-13.656,63.589,24.93,96.401
	c-1.778,8.734-2.712,17.775-2.712,27.034l0,0c0,54.08,43.84,97.921,97.921,97.921h73.795c54.08,0,97.921-43.841,97.921-97.921l0,0
	c0-9.259-0.934-18.299-2.712-27.033C523.31,235.656,509.654,172.067,509.654,172.067z"/>
<g>
	<path style="opacity:0.3;fill:#20272E;enable-background:new    ;" d="M509.654,172.067c0,0-55.783-23.236-94.999,3.714l0,0
		c-18.571-9.643-39.667-15.098-62.038-15.098v232.738h36.898c54.08,0,97.921-43.841,97.921-97.921l0,0
		c0-9.259-0.934-18.299-2.712-27.033C523.31,235.656,509.654,172.067,509.654,172.067z"/>
	<path style="fill:#20272E;" d="M309.684,281.474c-0.58,0-1.167-0.054-1.758-0.162l-42.073-7.8
		c-5.206-0.965-8.643-5.968-7.678-11.174c0.965-5.205,5.967-8.638,11.174-7.678l42.073,7.8c5.206,0.965,8.643,5.968,7.678,11.174
		C318.244,278.247,314.215,281.474,309.684,281.474z"/>
	<path style="fill:#20272E;" d="M395.553,281.474c-4.531,0-8.56-3.225-9.415-7.841c-0.965-5.206,2.473-10.209,7.678-11.174
		l42.073-7.8c5.209-0.966,10.208,2.473,11.174,7.678c0.965,5.206-2.473,10.209-7.678,11.174l-42.073,7.8
		C396.721,281.42,396.133,281.474,395.553,281.474z"/>
	<circle style="fill:#20272E;" cx="287.8" cy="295.035" r="14.285"/>
	<circle style="fill:#20272E;" cx="417.435" cy="295.035" r="14.285"/>
	<path style="fill:#20272E;" d="M401.106,325.46c0,26.778-21.709,48.487-48.487,48.487s-48.487-21.709-48.487-48.487L401.106,325.46
		L401.106,325.46z"/>
	<path style="fill:#20272E;" d="M373.675,306.104c0,6.069-9.427,10.987-21.056,10.987s-21.056-4.92-21.056-10.987
		C331.563,300.036,373.675,300.036,373.675,306.104z"/>
</g>
</svg>