<?xml version="1.0" encoding="UTF-8"?>
<!DOCTYPE svg PUBLIC "-//W3C//DTD SVG 1.1//EN" "http://www.w3.org/Graphics/SVG/1.1/DTD/svg11.dtd">
<svg xmlns="http://www.w3.org/2000/svg" version="1.1" width="1200px" height="1198px" style="shape-rendering:geometricPrecision; text-rendering:geometricPrecision; image-rendering:optimizeQuality; fill-rule:evenodd; clip-rule:evenodd" xmlns:xlink="http://www.w3.org/1999/xlink">
<g><path style="opacity:0.994" fill="#000000" d="M 576.5,82.5 C 737.785,78.93 873.285,135.597 983,252.5C 1088.16,373.7 1130.49,514.366 1110,674.5C 1082.94,833.584 1001.44,955.751 865.5,1041C 741.237,1112.87 609.237,1131.87 469.5,1098C 332.708,1059.9 227.541,980.403 154,859.5C 84.9934,737.453 66.66,608.12 99,471.5C 142.694,313.157 238.527,198.657 386.5,128C 447.156,101.168 510.49,86.0014 576.5,82.5 Z"/></g>
<g><path style="opacity:1" fill="#fe1b1b" d="M 695.5,176.5 C 763.093,215.593 816.593,268.926 856,336.5C 895.978,406.936 918.478,482.603 923.5,563.5C 870.5,563.5 817.5,563.5 764.5,563.5C 746.805,492.306 702.138,448.473 630.5,432C 556.392,421.987 498.225,447.487 456,508.5C 445.867,525.597 438.367,543.763 433.5,563C 345.167,563.5 256.834,563.667 168.5,563.5C 182.359,433.905 240.692,329.738 343.5,251C 449.909,175.084 567.243,150.25 695.5,176.5 Z"/></g>
<g><path style="opacity:1" fill="#de1717" d="M 695.5,176.5 C 822.967,206.505 919.134,278.172 984,391.5C 1013.26,445.217 1030.43,502.551 1035.5,563.5C 998.167,563.5 960.833,563.5 923.5,563.5C 918.478,482.603 895.978,406.936 856,336.5C 816.593,268.926 763.093,215.593 695.5,176.5 Z"/></g>
<g><path style="opacity:1" fill="#fefefe" d="M 590.5,498.5 C 638.161,497.565 671.995,518.565 692,561.5C 706.695,605.553 697.195,643.386 663.5,675C 634.994,697.219 603.327,703.219 568.5,693C 530.569,678.65 508.069,651.483 501,611.5C 497.368,559.579 519.535,523.746 567.5,504C 575.194,501.7 582.86,499.866 590.5,498.5 Z"/></g>
<g><path style="opacity:1" fill="#fefefe" d="M 922.5,633.5 C 915.96,750.178 874.46,852.178 798,939.5C 768.86,971.269 735.694,997.602 698.5,1018.5C 570.006,1047.3 451.672,1024.47 343.5,950C 237.114,871.449 177.114,765.949 163.5,633.5C 253.833,633.5 344.167,633.5 434.5,633.5C 445.952,685.246 474.952,723.746 521.5,749C 587.605,779.421 649.605,772.755 707.5,729C 737.37,703.776 756.37,671.943 764.5,633.5C 817.167,633.5 869.833,633.5 922.5,633.5 Z"/></g>
<g><path style="opacity:1" fill="#dedede" d="M 922.5,633.5 C 958.506,633.167 994.506,633.5 1030.5,634.5C 1012.79,784.533 939.455,898.033 810.5,975C 775.267,994.911 737.933,1009.41 698.5,1018.5C 735.694,997.602 768.86,971.269 798,939.5C 874.46,852.178 915.96,750.178 922.5,633.5 Z"/></g>
</svg>
